<svg width="21" height="19" viewBox="0 0 21 19" fill="none" xmlns="http://www.w3.org/2000/svg">
<path d="M8.21487 11.4052H7.46487V12.1552V17.8592C7.46487 18.0721 7.28739 18.25 7.07358 18.25H3.64969C3.43589 18.25 3.2584 18.0721 3.2584 17.8592V9.87361V9.12361H2.5084H1.04314L10.2328 0.849943C10.233 0.849745 10.2332 0.849548 10.2334 0.849351C10.3822 0.716883 10.6127 0.716883 10.7615 0.849351C10.7617 0.849548 10.7619 0.849745 10.7622 0.849943L19.9518 9.12361H18.4865H17.7365V9.87361V17.8592C17.7365 18.0721 17.559 18.25 17.3452 18.25H13.9214C13.7075 18.25 13.5301 18.0721 13.5301 17.8592V12.1552V11.4052H12.7801H8.21487Z" stroke="#F4716A" stroke-width="1.5"/>
</svg>
