<svg width="308" height="315" viewBox="0 0 308 315" fill="none" xmlns="http://www.w3.org/2000/svg">
<path opacity="0.32" d="M169.948 15.0017C168.107 -4.33344 139.893 -4.33344 138.052 15.0017C136.497 31.3265 115.025 36.2273 106.541 22.1937C96.4931 5.57241 71.0739 17.8136 77.8039 36.033C83.4862 51.4158 66.2672 65.1474 52.5345 56.1847C36.2696 45.5692 18.679 67.6271 32.6476 81.1222C44.4414 92.5161 34.8856 112.359 18.6241 110.242C-0.636033 107.735 -6.91406 135.241 11.5265 141.339C27.096 146.487 27.096 168.511 11.5265 173.659C-6.91406 179.757 -0.636003 207.263 18.6241 204.756C34.8856 202.639 44.4414 222.482 32.6476 233.876C18.679 247.371 36.2696 269.429 52.5345 258.813C66.2672 249.851 83.4862 263.582 77.8039 278.965C71.0739 297.184 96.4931 309.426 106.541 292.804C115.025 278.771 136.497 283.672 138.052 299.996C139.893 319.332 168.107 319.332 169.948 299.996C171.503 283.672 192.975 278.771 201.459 292.804C211.507 309.426 236.926 297.185 230.196 278.965C224.514 263.582 241.733 249.851 255.465 258.813C271.73 269.429 289.321 247.371 275.352 233.876C263.559 222.482 273.114 202.639 289.376 204.756C308.636 207.263 314.914 179.757 296.473 173.659C280.904 168.511 280.904 146.487 296.473 141.339C314.914 135.241 308.636 107.735 289.376 110.242C273.114 112.359 263.559 92.5161 275.352 81.1222C289.321 67.6271 271.73 45.5692 255.465 56.1847C241.733 65.1474 224.514 51.4158 230.196 36.033C236.926 17.8136 211.507 5.57241 201.459 22.1937C192.975 36.2273 171.503 31.3265 169.948 15.0017Z" stroke="white"/>
</svg>
