<svg width="44" height="43" viewBox="0 0 44 43" fill="none" xmlns="http://www.w3.org/2000/svg">
<path opacity="0.6" fill-rule="evenodd" clip-rule="evenodd" d="M34.8903 21.748C37.9355 21.645 40.9808 21.6063 44 21.5483V21.3873C42.6986 21.3873 41.3451 21.3873 40.0242 21.3873C37.4214 21.3422 34.8187 21.2649 32.2159 21.2198C29.8705 21.2152 27.599 20.4071 25.787 18.9329C26.1718 18.0178 26.7307 17.1846 27.4333 16.4785C29.3854 14.5073 31.2919 12.4974 33.218 10.5068L33.1594 10.4489L32.4111 11.1897C30.6412 12.871 28.8843 14.5653 27.0949 16.2337C26.3894 16.9044 25.5642 17.4396 24.6613 17.812C23.1443 16.002 22.3175 13.722 22.3253 11.3701C22.2668 7.58219 22.1562 3.78787 22.0651 0H21.9544C21.9544 0.476704 21.9544 0.959838 21.9544 1.43654C21.8894 4.77347 21.8438 8.11042 21.7527 11.4474C21.7358 13.7666 20.9133 16.0094 19.4232 17.7991C18.47 17.4088 17.6017 16.8401 16.866 16.1242C14.8228 14.1916 12.7536 12.259 10.6974 10.3265C10.7252 10.3981 10.7698 10.4621 10.8275 10.5133C12.5063 12.2461 14.1917 13.9661 15.8574 15.7055C16.5246 16.3464 17.1301 17.0473 17.6663 17.7991C17.9003 18.1627 18.1006 18.5465 18.265 18.9458C16.4109 20.4289 14.0961 21.2322 11.7125 21.2198C7.80834 21.2842 3.90417 21.4001 0 21.4903C0.0992597 21.5292 0.2057 21.5468 0.312321 21.5419C3.65039 21.6127 6.98846 21.6643 10.3265 21.7609C11.6064 21.7449 12.8851 21.8462 14.1461 22.0637C15.6732 22.3892 17.0978 23.0767 18.2975 24.0671C17.9186 24.9829 17.369 25.8199 16.6773 26.5344C14.7252 28.5443 12.7731 30.5413 10.821 32.5447C12.9423 30.6121 15.018 28.6796 17.0937 26.7019C17.7742 26.0596 18.5742 25.5542 19.4492 25.2138C20.9258 26.9977 21.743 29.2271 21.7657 31.5333C21.8633 35.3534 21.9284 39.1799 22.0065 43C22.1691 39.0962 22.2668 35.1924 22.3448 31.2885C22.3906 29.0709 23.1985 26.935 24.6353 25.2331C25.0098 25.3843 25.3692 25.5698 25.7089 25.7871C26.7123 26.4941 27.6488 27.2897 28.507 28.1642C30.1272 29.6587 31.7083 31.1855 33.309 32.6736L33.3872 32.5898C32.7365 31.9456 32.0207 31.2563 31.3505 30.5671C30.0491 29.2271 28.7477 27.8614 27.4137 26.5151C26.7188 25.8092 26.1667 24.9783 25.787 24.0671C26.9454 23.0883 28.332 22.4108 29.8213 22.0959C31.4968 21.8281 33.1935 21.7117 34.8903 21.748Z" fill="white"/>
</svg>
