<svg width="11" height="19" viewBox="0 0 11 19" fill="none" xmlns="http://www.w3.org/2000/svg">
<path d="M0.000984781 9.48393C0.000984781 9.67366 0.0372575 9.85224 0.109803 10.0197C0.182349 10.1815 0.296747 10.3377 0.452999 10.4884L8.84038 18.6079C9.08033 18.8535 9.3761 18.9762 9.72766 18.9762C9.96204 18.9762 10.1741 18.9176 10.3638 18.8004C10.5591 18.6888 10.7126 18.5382 10.8242 18.3484C10.9414 18.1587 11 17.9439 11 17.7039C11 17.3635 10.8689 17.0594 10.6066 16.7915L3.02278 9.47556L10.6066 2.16799C10.8689 1.90571 11 1.60158 11 1.2556C11 1.02122 10.9414 0.809161 10.8242 0.619427C10.7126 0.429693 10.5591 0.279021 10.3638 0.167413C10.1741 0.0558042 9.96204 0 9.72766 0C9.3761 0 9.08033 0.119979 8.84038 0.359937L0.452999 8.47945C0.302328 8.63013 0.190719 8.78638 0.118174 8.94821C0.0456282 9.11004 0.0065652 9.28862 0.000984781 9.48393Z" fill="#F4716A"/>
</svg>
