<svg width="28" height="19" viewBox="0 0 28 19" fill="none" xmlns="http://www.w3.org/2000/svg">
<path d="M7.98347 18.0727V16.6303C7.98347 14.7175 8.61735 12.8831 9.74567 11.5306C10.874 10.178 12.4043 9.41818 14 9.41818M14 9.41818C15.5957 9.41818 17.126 10.178 18.2543 11.5306C19.3826 12.8831 20.0165 14.7175 20.0165 16.6303V18.0727M14 9.41818C14.9574 9.41818 15.8756 8.96227 16.5526 8.15075C17.2296 7.33923 17.6099 6.23857 17.6099 5.09091C17.6099 3.94325 17.2296 2.84259 16.5526 2.03107C15.8756 1.21954 14.9574 0.763636 14 0.763636C13.0426 0.763636 12.1244 1.21954 11.4474 2.03107C10.7704 2.84259 10.3901 3.94325 10.3901 5.09091C10.3901 6.23857 10.7704 7.33923 11.4474 8.15075C12.1244 8.96227 13.0426 9.41818 14 9.41818ZM0.763636 18.0727V16.6303C0.763636 15.4826 1.14397 14.382 1.82096 13.5705C2.49795 12.7589 3.41614 12.303 4.37355 12.303M4.37355 12.303C5.01183 12.303 5.62396 11.9991 6.07529 11.4581C6.52661 10.9171 6.78017 10.1833 6.78017 9.41818C6.78017 8.65307 6.52661 7.9193 6.07529 7.37829C5.62396 6.83727 5.01183 6.53333 4.37355 6.53333C3.73528 6.53333 3.12315 6.83727 2.67182 7.37829C2.2205 7.9193 1.96694 8.65307 1.96694 9.41818C1.96694 10.1833 2.2205 10.9171 2.67182 11.4581C3.12315 11.9991 3.73528 12.303 4.37355 12.303ZM27.2364 18.0727V16.6303C27.2364 15.4826 26.856 14.382 26.179 13.5705C25.5021 12.7589 24.5839 12.303 23.6264 12.303M23.6264 12.303C24.2647 12.303 24.8769 11.9991 25.3282 11.4581C25.7795 10.9171 26.0331 10.1833 26.0331 9.41818C26.0331 8.65307 25.7795 7.9193 25.3282 7.37829C24.8769 6.83727 24.2647 6.53333 23.6264 6.53333C22.9882 6.53333 22.376 6.83727 21.9247 7.37829C21.4734 7.9193 21.2198 8.65307 21.2198 9.41818C21.2198 10.1833 21.4734 10.9171 21.9247 11.4581C22.376 11.9991 22.9882 12.303 23.6264 12.303Z" stroke="#999999" stroke-width="1.5" stroke-linecap="round" stroke-linejoin="round"/>
</svg>
