<svg width="30" height="30" viewBox="0 0 30 30" fill="none" xmlns="http://www.w3.org/2000/svg">
<g clip-path="url(#clip0_2_1402)">
<path d="M29.3159 15.3323C29.3159 14.1025 29.2161 13.2051 29.0001 12.2744H14.957V17.8251H23.2C23.0339 19.2045 22.1365 21.2819 20.1421 22.6778L20.1142 22.8637L24.5543 26.3034L24.862 26.3341C27.6872 23.7249 29.3159 19.8859 29.3159 15.3323Z" fill="#4285F4"/>
<path d="M14.9575 29.9569C18.9958 29.9569 22.3861 28.6274 24.8624 26.334L20.1426 22.6777C18.8795 23.5585 17.1844 24.1734 14.9575 24.1734C11.0021 24.1734 7.64513 21.5643 6.44844 17.958L6.27303 17.9729L1.65608 21.546L1.5957 21.7138C4.0553 26.5998 9.1075 29.9569 14.9575 29.9569Z" fill="#34A853"/>
<path d="M6.44813 17.958C6.13237 17.0274 5.94963 16.0301 5.94963 14.9998C5.94963 13.9694 6.13237 12.9723 6.43151 12.0416L6.42315 11.8434L1.74834 8.21289L1.59539 8.28564C0.581673 10.3132 0 12.59 0 14.9998C0 17.4096 0.581673 19.6863 1.59539 21.7138L6.44813 17.958Z" fill="#FBBC05"/>
<path d="M14.9575 5.82636C17.766 5.82636 19.6606 7.03954 20.7408 8.05338L24.9621 3.93183C22.3696 1.52207 18.9958 0.0429688 14.9575 0.0429688C9.1075 0.0429688 4.0553 3.39999 1.5957 8.28595L6.43183 12.0419C7.64513 8.43558 11.0021 5.82636 14.9575 5.82636Z" fill="#EB4335"/>
</g>
<defs>
<clipPath id="clip0_2_1402">
<rect width="29.316" height="30" fill="white"/>
</clipPath>
</defs>
</svg>
