<svg width="30" height="30" viewBox="0 0 30 30" fill="none" xmlns="http://www.w3.org/2000/svg">
<path d="M3.28125 3.75C1.98853 3.75 0.9375 4.80103 0.9375 6.09375V22.0312C0.9375 23.324 1.98853 24.375 3.28125 24.375H26.7188C28.0115 24.375 29.0625 23.324 29.0625 22.0312V6.09375C29.0625 4.80103 28.0115 3.75 26.7188 3.75H3.28125ZM4.14734 4.6875H25.8527L15.2747 12.3486C15.1099 12.4677 14.8883 12.4677 14.7235 12.3486L4.14734 4.6875ZM2.71729 4.80835L14.1742 13.1067C14.4214 13.2861 14.7107 13.374 15 13.374C15.2893 13.374 15.5786 13.2861 15.8258 13.1067L27.2827 4.80835C27.7771 5.02625 28.125 5.5188 28.125 6.09375V22.0312C28.125 22.8058 27.4933 23.4375 26.7188 23.4375H25.3125V10.2155C25.3125 10.0397 25.2136 9.87854 25.0562 9.79797C24.9005 9.71741 24.7119 9.73206 24.5691 9.83643L15.2747 16.5674C15.1099 16.6864 14.8883 16.6864 14.7235 16.5674L5.43274 9.83643C5.28992 9.73206 5.10132 9.71741 4.94385 9.79797C4.78638 9.87854 4.6875 10.0397 4.6875 10.2173V23.4375H3.28125C2.50671 23.4375 1.875 22.8058 1.875 22.0312V6.09375C1.875 5.5188 2.2229 5.02625 2.71729 4.80835ZM24.375 11.1328V20.625C24.1168 20.625 23.9062 20.8337 23.9062 21.0938V22.0312C23.9062 22.2913 24.1168 22.5 24.375 22.5V23.4375H5.625V22.5C5.88318 22.5 6.09375 22.2913 6.09375 22.0312V21.0938C6.09375 20.8337 5.88318 20.625 5.625 20.625V11.1346L14.1742 17.3254C14.6686 17.6843 15.3314 17.6843 15.8258 17.3254L24.375 11.1328ZM7.96875 20.625C7.71057 20.625 7.5 20.8337 7.5 21.0938V22.0312C7.5 22.2913 7.71057 22.5 7.96875 22.5C8.22693 22.5 8.4375 22.2913 8.4375 22.0312V21.0938C8.4375 20.8337 8.22693 20.625 7.96875 20.625ZM10.3125 20.625C10.0543 20.625 9.84375 20.8337 9.84375 21.0938V22.0312C9.84375 22.2913 10.0543 22.5 10.3125 22.5C10.5707 22.5 10.7812 22.2913 10.7812 22.0312V21.0938C10.7812 20.8337 10.5707 20.625 10.3125 20.625ZM12.6562 20.625C12.3981 20.625 12.1875 20.8337 12.1875 21.0938V22.0312C12.1875 22.2913 12.3981 22.5 12.6562 22.5C12.9144 22.5 13.125 22.2913 13.125 22.0312V21.0938C13.125 20.8337 12.9144 20.625 12.6562 20.625ZM15 20.625C14.7418 20.625 14.5312 20.8337 14.5312 21.0938V22.0312C14.5312 22.2913 14.7418 22.5 15 22.5C15.2582 22.5 15.4688 22.2913 15.4688 22.0312V21.0938C15.4688 20.8337 15.2582 20.625 15 20.625ZM17.3438 20.625C17.0856 20.625 16.875 20.8337 16.875 21.0938V22.0312C16.875 22.2913 17.0856 22.5 17.3438 22.5C17.6019 22.5 17.8125 22.2913 17.8125 22.0312V21.0938C17.8125 20.8337 17.6019 20.625 17.3438 20.625ZM19.6875 20.625C19.4293 20.625 19.2188 20.8337 19.2188 21.0938V22.0312C19.2188 22.2913 19.4293 22.5 19.6875 22.5C19.9457 22.5 20.1562 22.2913 20.1562 22.0312V21.0938C20.1562 20.8337 19.9457 20.625 19.6875 20.625ZM22.0312 20.625C21.7731 20.625 21.5625 20.8337 21.5625 21.0938V22.0312C21.5625 22.2913 21.7731 22.5 22.0312 22.5C22.2894 22.5 22.5 22.2913 22.5 22.0312V21.0938C22.5 20.8337 22.2894 20.625 22.0312 20.625Z" fill="black"/>
</svg>
