<svg width="22" height="20" viewBox="0 0 22 20" fill="none" xmlns="http://www.w3.org/2000/svg">
<path d="M1.63261 7.94872V17.1795C1.63261 17.7235 1.84873 18.2453 2.23342 18.63C2.61811 19.0147 3.13986 19.2308 3.68389 19.2308H18.0429C18.5869 19.2308 19.1087 19.0147 19.4933 18.63C19.878 18.2453 20.0942 17.7235 20.0942 17.1795V7.94872" stroke="#999999" stroke-width="1.5"/>
<path d="M13.77 19.2308V13.0769C13.77 12.5329 13.5539 12.0111 13.1692 11.6264C12.7845 11.2418 12.2628 11.0256 11.7188 11.0256H9.66747C9.12343 11.0256 8.60168 11.2418 8.21699 11.6264C7.8323 12.0111 7.61619 12.5329 7.61619 13.0769V19.2308" stroke="#999999" stroke-width="1.5" stroke-miterlimit="16"/>
<path d="M20.9331 7.29641L19.1957 1.21538C19.1589 1.08682 19.0813 0.973729 18.9745 0.893229C18.8677 0.812729 18.7376 0.769201 18.6039 0.769231H14.4531L14.9403 6.61949C14.9477 6.71356 14.9774 6.80451 15.027 6.88479C15.0766 6.96506 15.1446 7.03234 15.2254 7.08103C15.6254 7.32 16.407 7.76103 17.0172 7.94872C18.0593 8.26974 19.5813 8.15385 20.449 8.04718C20.5334 8.03627 20.6143 8.00709 20.6863 7.96167C20.7582 7.91625 20.8193 7.85569 20.8654 7.7842C20.9115 7.71272 20.9414 7.63203 20.9531 7.54779C20.9648 7.46354 20.958 7.37775 20.9331 7.29641Z" stroke="#999999" stroke-width="1.5"/>
<path d="M12.9145 7.94872C13.497 7.76923 14.2355 7.36 14.6478 7.1159C14.7439 7.05869 14.8219 6.97546 14.8727 6.87583C14.9235 6.77619 14.9451 6.66421 14.935 6.55282L14.4529 0.769231H7.27344L6.79139 6.55282C6.78106 6.66437 6.80256 6.77657 6.85338 6.87641C6.90421 6.97625 6.98229 7.05964 7.07857 7.11692C7.49087 7.36 8.22933 7.76923 8.8119 7.94872C10.3432 8.42051 11.3832 8.42051 12.9145 7.94872Z" stroke="#999999" stroke-width="1.5"/>
<path d="M2.53163 1.21538L0.794192 7.29744C0.769668 7.37865 0.763112 7.46422 0.774979 7.54822C0.786846 7.63222 0.816851 7.71263 0.862912 7.78387C0.908973 7.8551 0.969987 7.91547 1.04172 7.96076C1.11345 8.00605 1.19417 8.03519 1.27829 8.04615C2.14496 8.15385 3.66804 8.26872 4.71009 7.94872C5.32035 7.76103 6.10291 7.32 6.50188 7.08205C6.58285 7.03327 6.65097 6.96583 6.70057 6.88536C6.75017 6.8049 6.77981 6.71374 6.78701 6.61949L7.27419 0.769231H3.12342C2.9897 0.769201 2.85961 0.812729 2.75283 0.893229C2.64605 0.973729 2.5684 1.08682 2.53163 1.21538Z" stroke="#999999" stroke-width="1.5"/>
</svg>
