<svg width="191" height="195" viewBox="0 0 191 195" fill="none" xmlns="http://www.w3.org/2000/svg">
<path opacity="0.32" d="M105.018 9.30488C103.899 -2.43451 86.7698 -2.4345 85.6517 9.30489C84.6717 19.5936 71.1393 22.6823 65.7922 13.8377C59.6914 3.74598 44.258 11.1783 48.3442 22.2402C51.9254 31.9352 41.0732 40.5896 32.4181 34.9408C22.5428 28.4956 11.8626 41.8881 20.3437 50.0817C27.7767 57.2628 21.7542 69.7686 11.5054 68.4345C-0.188426 66.9124 -4.00016 83.6126 7.1961 87.3149C17.0088 90.5597 17.0088 104.44 7.1961 107.685C-4.00016 111.387 -0.188426 128.088 11.5054 126.565C21.7542 125.231 27.7767 137.737 20.3437 144.918C11.8626 153.112 22.5428 166.504 32.4181 160.059C41.0732 154.41 51.9254 163.065 48.3442 172.76C44.258 183.822 59.6914 191.254 65.7922 181.162C71.1393 172.318 84.6717 175.406 85.6517 185.695C86.7698 197.434 103.899 197.434 105.018 185.695C105.998 175.406 119.53 172.318 124.877 181.162C130.978 191.254 146.411 183.822 142.325 172.76C138.744 163.065 149.596 154.41 158.251 160.059C168.126 166.504 178.807 153.112 170.326 144.918C162.893 137.737 168.915 125.231 179.164 126.565C190.858 128.088 194.669 111.387 183.473 107.685C173.66 104.44 173.66 90.5597 183.473 87.3149C194.669 83.6126 190.858 66.9124 179.164 68.4345C168.915 69.7686 162.893 57.2628 170.326 50.0817C178.807 41.8881 168.126 28.4956 158.251 34.9408C149.596 40.5896 138.744 31.9352 142.325 22.2402C146.411 11.1783 130.978 3.74598 124.877 13.8377C119.53 22.6823 105.998 19.5936 105.018 9.30488Z" stroke="white"/>
</svg>
